<svg xmlns="http://www.w3.org/2000/svg" width="180.299" height="171.654"><path d="M180.081 96.186a21.035 21.035 0 00-17.814-17.814v-5.463c0-15.073-11.458-27.345-25.542-27.345-13.679 0-25.13 11.9-25.542 26.528h.174l-.174.03v59.218c0 18.931-14.153 34.3-31.552 34.3s-31.552-15.394-31.552-34.3v-5.129c4.357 0 9.015-3.158 9.015-12.02v-7.557c19.286-4.932 33.054-21.492 33.054-40.267v-6.266h-6.01l-.126-39.109A15.04 15.04 0 0071.65 6.283a8.967 8.967 0 10-.2 6.127 9.015 9.015 0 016.548 8.6l.135 39.091h-6.01v6.352a23.9 23.9 0 01-17.3 22.42 27.324 27.324 0 01-16.527 0 23.883 23.883 0 01-17.26-22.42v-6.352H12.02V21.037a9.015 9.015 0 016.671-8.666 9.057 9.057 0 10-.186-6.1A15.025 15.025 0 006.01 21.037v39.064H0v6.25c0 18.8 13.778 35.362 33.054 40.281v7.56c0 8.862 4.658 12.02 9.015 12.02v5.129c0 22.237 16.849 40.314 37.562 40.314s37.562-18.1 37.562-40.314V72.265c.3-11.4 9.069-20.683 19.532-20.683 10.77 0 19.532 9.568 19.532 21.335v5.455a21.035 21.035 0 1023.824 17.814zM63.1 12.022a3 3 0 113-3 3.005 3.005 0 01-3 3zm-36.059-6.01a3 3 0 11-3 3 3.005 3.005 0 013.003-2.999zM6.01 66.352v-.24h9.015v.343a29.857 29.857 0 0021.449 28.137 33.437 33.437 0 0020.187 0 29.863 29.863 0 0021.467-28.138v-.343h6.01v.24c0 16.716-12.885 31.426-30.65 34.984a42.865 42.865 0 01-12.678.622 39.248 39.248 0 01-4.15-.628C18.9 97.777 6.01 83.068 6.01 66.352zm36.059 53.849c-2.7 0-3-4.207-3-6.01v-6.376c.24.03.487.042.73.066.3.033.6.057.9.084 1.421.126 2.855.21 4.3.213h.15c1.442 0 2.873-.087 4.285-.213.3-.027.619-.051.929-.084.237-.027.484-.036.721-.066v6.377c0 1.8-.3 6.01-3 6.01zm117.193-6.01a15.025 15.025 0 1115.025-15.025 15.025 15.025 0 01-15.025 15.026z"/><path d="M159.262 90.151a9.015 9.015 0 109.015 9.015 9.015 9.015 0 00-9.015-9.015zm0 12.02a3 3 0 113.005-3 3.005 3.005 0 01-3.005 3z"/></svg>