<svg xmlns="http://www.w3.org/2000/svg" width="180.299" height="180.299"><path d="M179.268 1.032a3.522 3.522 0 00-4.98 0L133.816 41.5l-2.489-2.489a3.523 3.523 0 00-4.98 0l-11.6 11.6-2.489-2.489a10.557 10.557 0 00-14.939 0L30.841 114.6l-10.74-10.742a3.522 3.522 0 00-4.98 4.98l20.7 20.7-19.67 19.67-10.139-10.135a3.522 3.522 0 10-4.98 4.98l35.215 35.215a3.522 3.522 0 104.98-4.98L31.089 164.15l19.67-19.67 20.7 20.7a3.522 3.522 0 104.98-4.98l-10.738-10.742 66.481-66.481a10.576 10.576 0 000-14.939l-2.489-2.489 11.6-11.6a3.522 3.522 0 000-4.98l-2.492-2.485 40.467-40.472a3.521 3.521 0 000-4.98zM26.109 159.17l-4.979-4.979 19.67-19.67 4.979 4.979zm9.713-39.588l7.9-7.9 24.9 24.9-7.9 7.9zM127.201 78l-9.585 9.585-12.45-12.451a3.522 3.522 0 00-4.98 4.98l12.448 12.448-9.105 9.105L91.08 89.22a3.522 3.522 0 00-4.979 4.98l12.448 12.448-9.105 9.105-12.45-12.448a3.521 3.521 0 00-4.98 4.98l12.448 12.448L73.596 131.6l-24.895-24.9 53.6-53.6a3.518 3.518 0 014.978 0l19.922 19.917a3.526 3.526 0 010 4.979zm-2.489-17.428l-4.981-4.982 9.106-9.106 4.979 4.979z"/></svg>